<svg version="1.2" xmlns="http://www.w3.org/2000/svg" viewBox="0 0 72 20" width="72" height="20">
	<title>Nytt projekt</title>
	<style>
		.s0 { fill: #000000 } 
		.s1 { fill: #30af5b } 
	</style>
	<path id="Hi" class="s0" aria-label="Hi"  d="m9.6 2.5v6.6h-5.4v-6.6h-4v17.5h4v-6.8h5.4v6.8h3.9v-17.5zm8.5 2.4c1.4 0 2.3-1.1 2.3-2.6 0-1.4-0.9-2.4-2.3-2.4-1.4 0-2.3 1.1-2.3 2.5 0 1.4 0.9 2.5 2.3 2.5zm-1.9 15.1h3.8v-13.6h-3.8z"/>
	<path id="Trail." class="s1" aria-label="Trail."  d="m26 20h3.9v-13.6h4.3v-3.9h-12.5v3.9h4.3zm12.9-11.9v-1.6h-3.6v13.5h3.8v-6.2c0-2.4 1-3.4 2.6-3.4 0.3 0 0.5 0.1 0.8 0.1v-4.3c-1.6 0-2.8 0.7-3.6 1.9zm9.7-1.9c-1.7 0-3.5 0.6-4.7 1.6l1.2 3.2c0.8-0.7 1.9-1.1 3-1.1 1.5 0 2.2 0.7 2.3 2.1h-2.2c-3.3 0-4.8 1.6-4.8 4.1 0 2.3 1.4 4.2 4 4.2 1.6 0 2.7-0.7 3.2-2v1.7h3.6v-7.5c0-4.3-2-6.3-5.6-6.3zm-0.1 11.1c-0.9 0-1.4-0.6-1.4-1.4 0-0.9 0.4-1.4 1.6-1.4h1.7v1.2c-0.3 1.1-1.1 1.6-1.9 1.6zm10-12.3c1.4 0 2.3-1.1 2.3-2.6 0-1.4-0.9-2.5-2.3-2.5-1.4 0-2.3 1.1-2.3 2.6 0 1.4 0.9 2.5 2.3 2.5zm-1.9 15h3.8v-13.5h-3.8zm6.2 0h3.8v-18.6h-3.8zm7.3 0.2c1.1 0 1.9-0.9 1.9-2.3 0-1.3-0.8-2.2-1.9-2.2-1 0-1.8 0.9-1.8 2.2 0 1.4 0.8 2.3 1.8 2.3z"/>
</svg>